<?xml version="1.0" standalone="no"?>
<svg viewBox="0 0 200 200" xmlns="http://www.w3.org/2000/svg">
  <path fill="#00FFE7" d="M37.2,-52.1C48,-50.9,56.4,-40.2,53.8,-29.4C51.3,-18.6,37.7,-7.5,36.4,5.7C35.2,18.9,46.2,34.2,45.5,45C44.8,55.7,32.4,61.8,18.4,68.5C4.5,75.2,-11,82.6,-24.5,80.1C-38,77.7,-49.7,65.4,-51.4,51.3C-53.1,37.2,-44.9,21.2,-49.8,5.5C-54.7,-10.3,-72.7,-25.9,-69.7,-31.5C-66.6,-37.1,-42.4,-32.8,-27.3,-32C-12.2,-31.3,-6.1,-34.1,3.5,-39.6C13.2,-45.1,26.4,-53.3,37.2,-52.1Z" transform="translate(100 100)" />
</svg>
